<svg xmlns="http://www.w3.org/2000/svg" width="100%" height="100%" viewBox="0 0 512 512"><defs><linearGradient id="glassGrad" x1="0%" x2="100%" y1="0%" y2="100%"><stop offset="0%" stop-color="#fff" stop-opacity=".9"/><stop offset="30%" stop-color="#e0e0e0" stop-opacity=".5"/><stop offset="70%" stop-color="#999" stop-opacity=".2"/><stop offset="100%" stop-color="#555" stop-opacity=".1"/></linearGradient><linearGradient id="metalBorder" x1="0%" x2="100%" y1="0%" y2="100%"><stop offset="0%" stop-color="#fff"/><stop offset="40%" stop-color="#b8b8b8"/><stop offset="70%" stop-color="#555"/><stop offset="100%" stop-color="#222"/></linearGradient><linearGradient id="pixelGrad" x1="0%" x2="100%" y1="0%" y2="100%"><stop offset="0%" stop-color="#fff"/><stop offset="100%" stop-color="#888"/></linearGradient></defs><g filter="drop-shadow(0px 8px 16px rgba(0,0,0,0.3))"><g fill="url(#pixelGrad)"><rect width="24" height="24" x="110" y="80" rx="4"/><rect width="32" height="32" x="140" y="60" rx="4"/><rect width="20" height="20" x="180" y="40" rx="3"/><rect width="40" height="40" x="120" y="120" rx="6"/><rect width="28" height="28" x="170" y="110" rx="4"/><rect width="24" height="24" x="210" y="90" rx="4"/><rect width="48" height="48" x="100" y="170" rx="6"/><rect width="36" height="36" x="160" y="160" rx="5"/><rect width="32" height="32" x="210" y="140" rx="5"/><rect width="28" height="28" x="110" y="230" rx="4"/></g><g fill="url(#pixelGrad)"><rect width="24" height="24" x="110" y="408" rx="4"/><rect width="32" height="32" x="140" y="420" rx="4"/><rect width="20" height="20" x="180" y="452" rx="3"/><rect width="40" height="40" x="120" y="352" rx="6"/><rect width="28" height="28" x="170" y="374" rx="4"/><rect width="24" height="24" x="210" y="398" rx="4"/><rect width="48" height="48" x="100" y="294" rx="6"/><rect width="36" height="36" x="160" y="316" rx="5"/><rect width="32" height="32" x="210" y="340" rx="5"/><rect width="28" height="28" x="110" y="254" rx="4"/></g><path fill="url(#glassGrad)" stroke="url(#metalBorder)" stroke-linejoin="round" stroke-width="12" d="M 230 140 L 380 246 C 395 256, 395 266, 380 276 L 230 382 C 215 392, 200 382, 210 366 L 320 266 C 325 261, 325 251, 320 246 L 210 146 C 200 130, 215 120, 230 140 Z"/><path fill="none" stroke="#fff" stroke-linecap="round" stroke-width="6" d="M 240 160 L 360 251 C 368 256, 368 261, 360 266 L 330 290" opacity=".8"/><path fill="none" stroke="#fff" stroke-linecap="round" stroke-width="4" d="M 230 170 L 250 185" opacity=".5"/></g></svg>